# xmcd
#
# Track frame offsets: 
#        150
#        47333
#        70133
#        94305
#        139733
#        183608
#        208733
#        240233
#        270833
#        299858
#
# Disc length: 4534 seconds
#
# Revision: 2
# Processed by: cddbd v1.4PL0 Copyright (c) Steve Scherf et al.
# Submitted via: ExactAudioCopy v0.90b4
#
DISCID=9411b40a
DTITLE=Dire Straits - On The Night
DYEAR=1993
DGENRE=Rock
TTITLE0=Calling Elvis
TTITLE1=Walk Of Life
TTITLE2=Heavy Fuel
TTITLE3=Romeo And Juliet
TTITLE4=Private Investigations
TTITLE5=Your Latest Trick
TTITLE6=On Every Street
TTITLE7=You And Your Friend
TTITLE8=Money For Nothing
TTITLE9=Brothers In Arms
EXTD=
EXTT0=
EXTT1=
EXTT2=
EXTT3=
EXTT4=
EXTT5=
EXTT6=
EXTT7=
EXTT8=
EXTT9=
PLAYORDER=
